<svg width="1867" height="902" viewBox="0 0 1867 902" fill="none" xmlns="http://www.w3.org/2000/svg">
<g clip-path="url(#clip0_143_2225)">
<path d="M1142.86 53.4542C1098.22 149.446 1106.66 209.628 1168.18 234C1260.47 270.559 1479.89 285.183 1571.61 364.489C1663.33 443.793 1942.98 382.485 1990.81 246.373C2038.64 110.262 2124.75 -99.5312 1670.67 -99.5312C1367.94 -99.5312 1192.01 -48.5371 1142.86 53.4542Z" fill="#FFFA72"/>
<path d="M399.52 242.982C274.528 511.758 298.165 680.268 470.419 748.512C728.806 850.877 1343.2 891.822 1600.01 1113.88C1856.82 1335.93 2639.86 1164.27 2773.77 783.156C2907.69 402.043 3148.81 -185.377 1877.37 -185.377C1029.73 -185.377 537.119 -42.5934 399.52 242.982Z" fill="#C7E1F3"/>
<path d="M461.464 227.189C343.169 481.566 365.54 641.049 528.565 705.636C773.11 802.518 1354.59 841.269 1597.64 1051.43C1840.69 1261.59 2581.78 1099.12 2708.53 738.424C2835.27 377.728 3063.47 -178.223 1860.14 -178.223C1057.91 -178.223 591.692 -43.0883 461.464 227.189Z" fill="#B8CFE6"/>
<path d="M523.409 211.394C411.809 451.373 432.914 601.828 586.712 662.76C817.415 754.157 1365.98 790.715 1595.28 988.98C1824.57 1187.24 2523.71 1033.97 2643.28 693.692C2762.85 353.413 2978.13 -171.069 1842.92 -171.069C1086.1 -171.069 646.265 -43.5841 523.409 211.394Z" fill="#A9BEDA"/>
<path d="M585.354 195.601C480.45 421.181 500.288 562.609 644.858 619.884C861.719 705.798 1377.37 740.163 1592.91 926.532C1808.44 1112.9 2465.64 968.823 2578.03 648.961C2690.43 329.098 2892.79 -163.915 1825.69 -163.915C1114.28 -163.915 700.839 -44.0789 585.354 195.601Z" fill="#9AADCE"/>
<path d="M647.302 179.806C549.094 390.987 567.666 523.388 703.009 577.008C906.027 657.438 1388.76 689.609 1590.55 864.082C1792.32 1038.55 2407.57 903.674 2512.79 604.228C2618.01 304.782 2807.46 -156.762 1808.47 -156.762C1142.47 -156.762 755.416 -44.5747 647.302 179.806Z" fill="#8B9BC1"/>
<path d="M709.247 164.013C617.735 360.795 635.041 484.168 761.155 534.132C950.331 609.078 1400.15 639.056 1588.18 801.633C1776.2 964.208 2349.49 838.526 2447.54 559.497C2545.59 280.468 2722.12 -149.607 1791.24 -149.607C1170.65 -149.607 809.989 -45.0695 709.247 164.013Z" fill="#7D8AB5"/>
<path d="M771.191 148.218C686.375 330.602 702.415 444.948 819.301 491.256C994.636 560.718 1411.54 588.502 1585.81 739.184C1760.07 889.862 2291.42 773.377 2382.29 514.765C2473.16 256.152 2636.78 -142.454 1774.02 -142.454C1198.83 -142.454 864.562 -45.5653 771.191 148.218Z" fill="#6E79A9"/>
<path d="M833.136 132.425C755.016 300.41 769.789 405.728 877.448 448.381C1038.94 512.359 1422.93 537.95 1583.44 676.735C1743.95 815.518 2233.35 708.229 2317.04 470.033C2400.74 231.838 2551.44 -135.3 1756.79 -135.3C1227.02 -135.3 919.135 -46.0601 833.136 132.425Z" fill="#5F679C"/>
<path d="M895.081 116.63C823.657 270.217 837.164 366.508 935.594 405.504C1083.24 463.998 1434.32 487.396 1581.08 614.285C1727.82 741.172 2175.27 643.08 2251.8 425.301C2328.32 207.522 2466.1 -128.146 1739.56 -128.146C1255.2 -128.146 973.709 -46.5559 895.081 116.63Z" fill="#505690"/>
<path d="M957.029 100.837C892.301 240.024 904.542 327.288 993.745 362.629C1127.55 415.639 1445.72 436.843 1578.71 551.837C1711.7 666.828 2117.2 577.932 2186.55 380.569C2255.9 183.207 2380.77 -120.992 1722.34 -120.992C1283.39 -120.992 1028.29 -47.0507 957.029 100.837Z" fill="#414584"/>
<path d="M1018.97 85.0422C960.942 209.831 971.916 288.068 1051.89 319.752C1171.86 367.279 1457.11 386.289 1576.35 489.387C1695.58 592.483 2059.13 512.782 2121.31 335.837C2183.48 158.892 2295.43 -113.839 1705.12 -113.839C1311.57 -113.839 1082.86 -47.5465 1018.97 85.0422Z" fill="#323377"/>
<path d="M1080.92 69.2487C1029.58 179.639 1039.29 248.848 1110.04 276.877C1216.16 318.92 1468.5 335.736 1573.98 426.938C1679.45 518.138 2001.06 447.634 2056.06 291.106C2111.06 134.577 2210.09 -106.685 1687.89 -106.685C1339.75 -106.685 1137.43 -48.0413 1080.92 69.2487Z" fill="#23226B"/>
</g>
<defs>
<clipPath id="clip0_143_2225">
<rect width="1867" height="902" fill="white"/>
</clipPath>
</defs>
</svg>
